<svg width="539" height="868" viewBox="0 0 539 868" fill="none" xmlns="http://www.w3.org/2000/svg">
<path d="M0 100C0 44.7715 44.7715 0 100 0H439C494.228 0 539 44.7715 539 100V768C539 823.228 494.228 868 439 868H100C44.7715 868 0 823.228 0 768V100Z" fill="#FEFEFE"/>
<path fill-rule="evenodd" clip-rule="evenodd" d="M28.173 97C19.5185 97 12 103.345 12 112V112V704C12 731.614 34.3858 754 62 754H75C102.614 754 125 776.386 125 804V806C125 833.614 147.386 856 175 856H364C391.614 856 414 833.614 414 806V804C414 776.386 436.386 754 464 754H477C504.614 754 527 731.614 527 704V112C527 56.7715 482.229 12 427 12H112V12C98.4038 12 89 24.2663 89 37.8624V56.2211C89 78.7427 70.7427 97 48.2211 97H28.173Z" fill="#E9EAF4"/>
</svg>
