<svg width="539" height="868" viewBox="0 0 539 868" fill="none" xmlns="http://www.w3.org/2000/svg">
<path d="M0 100C0 44.7715 44.7715 0 100 0H439C494.228 0 539 44.7715 539 100V768C539 823.228 494.228 868 439 868H100C44.7715 868 0 823.228 0 768V100Z" fill="#FEFEFE"/>
<path fill-rule="evenodd" clip-rule="evenodd" d="M62 208.933C34.3858 208.933 12 231.319 12 258.933V756C12 811.228 56.7715 856 112 856H427C482.229 856 527 811.228 527 756V112C527 56.7715 482.229 12 427 12H175C147.386 12 125 34.3858 125 62V158.933C125 186.547 102.614 208.933 75 208.933H62Z" fill="#E9EAF4"/>
</svg>
