<svg width="515" height="844" viewBox="0 0 515 844" fill="none" xmlns="http://www.w3.org/2000/svg">
<path fill-rule="evenodd" clip-rule="evenodd" d="M16.173 85C7.51848 85 0 91.3454 0 100V100V744C0 799.228 44.7715 844 100 844H415C470.229 844 515 799.228 515 744V243C515 215.386 492.614 193 465 193H458C430.386 193 408 170.614 408 143V50C408 22.3858 385.614 0 358 0H100V0C86.4038 0 77 12.2663 77 25.8624V44.2211C77 66.7427 58.7427 85 36.2211 85H16.173ZM460 697C460 669.386 437.614 647 410 647H105C77.3858 647 55 669.386 55 697V748C55 775.614 77.3858 798 105 798H410C437.614 798 460 775.614 460 748V697Z" fill="#E9EAF4"/>
</svg>
