<svg width="1383" height="868" viewBox="0 0 1383 868" fill="none" xmlns="http://www.w3.org/2000/svg">
<rect width="1383" height="868" rx="100" fill="#FEFEFE"/>
<path fill-rule="evenodd" clip-rule="evenodd" d="M22 125C22 69.7715 66.7715 25 122 25H1261C1316.23 25 1361 69.7715 1361 125V654.5C1361 690.675 1331.67 720 1295.5 720H1291.5C1257.53 720 1230 747.534 1230 781.5V781.5C1230 815.466 1202.47 843 1168.5 843H213.5C179.534 843 152 815.466 152 781.5V781.5C152 747.534 124.466 720 90.5 720H87C51.1015 720 22 690.899 22 655V125Z" fill="#E9EAF4"/>
</svg>
